<svg height='300px' width='300px'  fill="white" xmlns="http://www.w3.org/2000/svg" xmlns:xlink="http://www.w3.org/1999/xlink" version="1.1" x="0px" y="0px" viewBox="0 0 100 100" style="enable-background:new 0 0 100 100;" xml:space="preserve"><g><path d="M50,12.7L50,12.7c-15.3,0-27.8,12.5-27.8,27.8v19c0,15.3,12.5,27.8,27.8,27.8h0c15.3,0,27.8-12.5,27.8-27.8   v-19C77.8,25.2,65.3,12.7,50,12.7z M73.1,48.7c0,2.8-2.1,5.2-4.8,5.8l-11.6,2.6c-4.5,1-9.2,1-13.6,0l-11.6-2.6   c-2.7-0.6-4.7-3-4.8-5.8c0,0,0,0,0-0.1c0-2,0.8-3.9,2.2-5.2c1.3-1.3,3.2-2.2,5.2-2.2h31.5c2,0,3.9,0.8,5.2,2.2S73.1,46.6,73.1,48.7   C73.1,48.7,73.1,48.7,73.1,48.7z M38.5,51.8c2.3,0.9,4.9-0.3,5.8-2.6L36,46.1C35.1,48.4,36.2,50.9,38.5,51.8z M55.7,49.3   c0.9,2.3,3.5,3.4,5.8,2.6c2.3-0.9,3.4-3.5,2.6-5.8L55.7,49.3z"></path></g><path d="M342.2,16.8L342.2,16.8c-7.1-7.1-18.6-7.1-25.7,0l-40.8,40.8c-7.1,7.1-7.1,18.6,0,25.7s18.6,7.1,25.7,0  l40.8-40.8C349.3,35.4,349.3,23.9,342.2,16.8z M300.1,75.3l-3.4,3.4c-2,2-4.7,3.1-7.4,3.1s-5.4-1-7.4-3.1c-1-1-1-2.6,0-3.6  c1-1,2.6-1,3.6,0c2.1,2.1,5.5,2.1,7.6,0l3.4-3.4c1-1,2.6-1,3.6,0C301,72.7,301,74.3,300.1,75.3z M310.8,64.3l-3.8,3.8  c-0.5,0.5-1.1,0.7-1.8,0.7s-1.3-0.2-1.8-0.7c-1-1-1-2.6,0-3.6l3.8-3.8c1-1,2.6-1,3.6,0C311.8,61.7,311.8,63.3,310.8,64.3z   M338.3,39.2l-19,19l-18.4-18.4l19-19c5.1-5.1,13.3-5.1,18.4,0v0C343.3,25.8,343.3,34.1,338.3,39.2z"></path></svg>